<svg id="Layer_1" data-name="Layer 1" xmlns="http://www.w3.org/2000/svg" viewBox="0 0 229.29 82.84"><defs><style>.cls-1{fill:#fff27b;stroke:#323232;stroke-miterlimit:10;stroke-width:0.5px;}</style></defs><path class="cls-1" d="M25.68,77.13c-4.33,0-9-3.52-14.65-10.86h-.46L8.69,68.41c7,9.54,13.2,14.18,19.1,14.18,5,0,8.44-3.28,8.44-7.22a10.85,10.85,0,0,0-1.41-5.08c-2-3.87-4.57-5.39-7.38-5.39a12.3,12.3,0,0,0-6.72,2.65L24,73h.51a9.7,9.7,0,0,1,5.43-2.26c1.64,0,2.19.86,2.19,1.52C32.09,75,28.92,77.13,25.68,77.13Z"/><path class="cls-1" d="M191.54,28.53h23.67v8.71a85.24,85.24,0,0,0-11.52-.94c-10.27,0-10.86,5.2-10.86,6.22,0,1.64,1.09,3.67,3.28,6s4,3.44,5.35,3.44a3.4,3.4,0,0,0,3.4-4,37.86,37.86,0,0,0-.35-4.3,22.42,22.42,0,0,1,5.7-.59c1.84,0,3.21,0,5,.2l-.19,18.51,6.21,1.8.55-.39-.16-34.65h6.8l.54-.74-2.65-5.35H184.8c-4.07-3.28-6.38-6.7-6.38-10.2,0-4,3.28-5.66,6.13-5.66a10.46,10.46,0,0,1,5.66,1.68l.47-.43a37,37,0,0,0-2.61-5.08c-.9-1.37-3.48-2.5-6.65-2.5A8.63,8.63,0,0,0,172.64,9c0,4.69,2.92,9.39,8.1,13.44H.84l-.55.74L3,28.53H6.58c-.08,2.11-.12,4.45-.12,6.95,0,8.36,1.88,11.29,6.57,14.65a13.25,13.25,0,0,0,7.61,2.74A10.13,10.13,0,0,0,26,51.3l-.15,10.47,6.21,1.8.55-.39-.16-34.65H62.21v8.71a85.5,85.5,0,0,0-11.53-.94c-10.27,0-10.86,5.2-10.86,6.22,0,1.64,1.1,3.67,3.28,6s4,3.44,5.36,3.44a3.57,3.57,0,0,0,2.3-.86A3.61,3.61,0,0,0,51.85,48a35.65,35.65,0,0,0-.35-4.3,22.45,22.45,0,0,1,5.71-.59c1.83,0,3.2,0,5,.2l-.19,18.51,6.21,1.8.55-.39-.16-34.65H87.4a11.73,11.73,0,0,1,.31,3c0,2.89-.58,4.65-1.44,5.78-1.21-.12-3-.15-4.85-.15a4,4,0,0,0-3.67,1.64A4.15,4.15,0,0,0,77.09,41a10.36,10.36,0,0,0,1.48,4c3.71,6.87,10,13.16,17.93,19.1h.59l3-6.64C94,54.55,88.92,51.38,85.68,47.87c5-2.78,8.52-6.72,8.52-14.53a25.45,25.45,0,0,0-.43-4.81h12.38L106,61.73l6.29,1.84.55-.39-.16-34.65h29.89V34a40.59,40.59,0,0,0-9.85-1.44c-8.12,0-12,4.29-12,9.45,0,2.15.82,4.76,3.24,7.85,3.25,4.06,7,5.86,11.21,5.86a14.52,14.52,0,0,0,7.39-2l-.16,8.12,6.21,1.8.55-.39L149,28.53h30V34.2c-2.65-.08-5.74-.16-9-.16-10.7,0-12.81,5.51-12.81,9.69,0,7,6,15.39,12.5,20.11l.58-.11,2.82-6.18c-7-3.82-10.2-6.17-10.2-10.19a5.79,5.79,0,0,1,2.46-4.81c1.72-1.28,4.45-2,10.47-2H179l-.11,21.21,6.21,1.8.54-.39-.15-34.65ZM26.07,39.2a6.38,6.38,0,0,1-2.42,5.19,10,10,0,0,1-6,2.5c-4.07,0-4.3-4-4.3-11,0-2.78,0-5.28.12-7.31H26.07Zm116.57,3.51a4.57,4.57,0,0,1-2,3.87,12.2,12.2,0,0,1-7.77,2.73c-4,0-5.74-1.6-5.74-3.71,0-3.75,3.32-6.87,9.69-6.87a26.81,26.81,0,0,1,5.86.62Z"/></svg>